<?xml version="1.0" standalone="no"?>
<!DOCTYPE svg PUBLIC "-//W3C//DTD SVG 20010904//EN"
 "http://www.w3.org/TR/2001/REC-SVG-20010904/DTD/svg10.dtd">
<svg version="1.0" xmlns="http://www.w3.org/2000/svg"
 width="200.000000pt" height="200.000000pt" viewBox="0 0 200.000000 200.000000"
 preserveAspectRatio="xMidYMid meet">
<metadata>
Created by potrace 1.14, written by Peter Selinger 2001-2017
</metadata>
<g transform="translate(0.000000,200.000000) scale(0.100000,-0.100000)"
fill="#000000" stroke="none">
<path d="M717 1832 c-2 -4 -3 -34 -3 -67 l1 -60 -140 -5 -140 -5 0 -62 c0 -34
-3 -65 -7 -68 -4 -4 -34 -7 -67 -6 -39 1 -60 -3 -63 -11 -2 -7 -4 -71 -3 -141
l1 -128 -35 1 c-20 1 -51 2 -69 1 l-32 -1 2 -277 3 -278 38 0 c20 0 37 -2 37
-5 0 -3 12 -6 27 -5 l28 0 0 -135 1 -135 44 -2 c25 -1 56 -2 70 -2 24 -1 25
-3 25 -68 l0 -68 140 -5 140 -5 0 -65 0 -65 280 0 280 0 0 65 0 65 210 5 210
5 0 135 0 135 70 5 70 5 0 345 0 344 -25 7 c-14 3 -32 3 -40 -1 -8 -4 -29 -3
-45 1 l-31 8 1 133 0 132 -27 7 c-16 4 -30 4 -33 0 -2 -5 -21 -5 -42 -2 l-38
6 0 65 0 65 -140 5 -140 5 0 65 0 65 -277 2 c-153 0 -279 -2 -281 -5z"/>
</g>
</svg>
