<?xml version="1.0" standalone="no"?>
<!DOCTYPE svg PUBLIC "-//W3C//DTD SVG 20010904//EN"
 "http://www.w3.org/TR/2001/REC-SVG-20010904/DTD/svg10.dtd">
<svg version="1.0" xmlns="http://www.w3.org/2000/svg"
 width="700.000000pt" height="700.000000pt" viewBox="0 0 700.000000 700.000000"
 preserveAspectRatio="xMidYMid meet">
<metadata>
Created by potrace 1.14, written by Peter Selinger 2001-2017
</metadata>
<g transform="translate(0.000000,700.000000) scale(0.100000,-0.100000)"
fill="#000000" stroke="none">
<path d="M510 6467 c0 -4 50 -133 111 -285 62 -152 119 -297 129 -322 33 -85
281 -705 290 -725 9 -19 314 -783 350 -875 33 -87 161 -405 170 -425 5 -11 64
-157 130 -325 66 -168 125 -314 130 -325 5 -11 45 -112 90 -225 44 -113 85
-214 90 -225 5 -11 109 -270 230 -575 121 -305 225 -564 230 -575 5 -11 19
-45 30 -75 11 -30 25 -64 30 -75 5 -11 86 -213 180 -448 93 -236 174 -436 179
-445 9 -16 59 -17 616 -17 397 0 609 3 614 10 4 5 92 221 196 480 103 259 193
484 201 500 12 29 188 467 326 815 38 96 75 189 82 205 7 17 26 62 41 100 15
39 33 84 40 100 13 31 218 542 501 1250 91 226 169 419 174 430 5 11 100 247
211 525 110 278 207 519 214 535 30 67 395 985 395 992 0 8 -1466 11 -1473 3
-2 -3 -43 -113 -91 -245 -48 -132 -91 -249 -96 -260 -8 -18 -62 -168 -305
-840 -42 -115 -80 -221 -86 -234 -5 -13 -48 -130 -96 -260 -108 -299 -126
-348 -268 -736 -65 -176 -135 -369 -156 -430 -22 -60 -44 -119 -49 -130 -33
-72 -246 -692 -305 -892 -10 -35 -22 -63 -25 -63 -4 0 -17 35 -30 78 -74 253
-215 649 -450 1267 -67 176 -142 374 -167 440 -25 66 -56 147 -68 180 -34 88
-229 602 -338 890 -52 138 -136 360 -187 495 -50 135 -98 259 -105 275 -7 17
-30 75 -50 130 -21 55 -49 129 -62 165 -14 36 -32 85 -40 110 -9 25 -20 49
-25 55 -10 12 -1508 14 -1508 2z"/>
</g>
</svg>
