<?xml version="1.0" standalone="no"?>
<!DOCTYPE svg PUBLIC "-//W3C//DTD SVG 20010904//EN"
 "http://www.w3.org/TR/2001/REC-SVG-20010904/DTD/svg10.dtd">
<svg version="1.0" xmlns="http://www.w3.org/2000/svg"
 width="500.000000pt" height="500.000000pt" viewBox="0 0 500.000000 500.000000"
 preserveAspectRatio="xMidYMid meet">
<metadata>
Created by potrace 1.14, written by Peter Selinger 2001-2017
</metadata>
<g transform="translate(0.000000,500.000000) scale(0.100000,-0.100000)"
fill="#000000" stroke="none">
<path d="M1000 3995 c-277 -42 -464 -142 -557 -296 -51 -86 -65 -160 -61 -318
5 -160 21 -217 95 -325 93 -137 251 -242 475 -318 73 -24 98 -37 98 -50 0 -12
-11 -19 -37 -23 -143 -24 -305 -82 -403 -145 -64 -41 -142 -126 -174 -188 -81
-159 -73 -409 18 -589 179 -356 676 -647 1272 -744 177 -28 429 -24 518 8 111
42 160 99 179 208 15 90 11 93 -100 69 -72 -15 -126 -19 -293 -18 -291 1 -501
35 -725 116 -292 107 -509 259 -629 442 -67 103 -94 169 -105 253 -35 284 151
450 574 510 150 21 622 24 634 4 5 -7 34 -108 66 -225 132 -490 255 -926 267
-948 16 -33 103 -17 166 29 41 31 72 91 72 140 0 70 -230 784 -408 1268 -103
280 -242 623 -334 827 -61 133 -78 182 -70 190 17 17 158 -24 271 -80 168 -83
249 -193 346 -472 68 -197 155 -592 206 -936 16 -115 34 -213 38 -217 5 -5 19
-7 32 -5 20 2 25 10 27 43 7 80 -43 554 -84 795 -48 285 -139 611 -211 753
-29 57 -46 67 -291 151 -234 80 -334 98 -577 102 -139 2 -229 -1 -295 -11z
m296 -83 c32 -20 163 -325 262 -607 86 -245 182 -551 182 -580 0 -17 -8 -18
-102 -12 -288 18 -560 96 -738 212 -93 60 -194 169 -231 249 -46 98 -65 227
-51 339 6 50 21 110 35 140 50 108 154 188 297 226 114 31 320 51 346 33z"/>
<path d="M2161 3984 c-26 -33 -27 -66 -1 -119 22 -45 53 -65 101 -65 24 0 32
7 46 34 15 33 15 38 -1 80 -20 52 -66 96 -101 96 -14 0 -32 -11 -44 -26z"/>
<path d="M2730 3972 c-68 -68 -64 -163 7 -170 18 -2 42 2 53 8 56 30 80 140
40 180 -30 30 -58 25 -100 -18z"/>
<path d="M3540 3999 c-47 -4 -114 -13 -150 -20 -70 -12 -342 -100 -455 -147
-69 -29 -71 -31 -104 -98 -102 -204 -199 -619 -250 -1064 -28 -243 -45 -474
-38 -494 8 -20 53 -21 60 -1 4 8 20 108 37 222 58 389 153 800 229 995 51 130
120 251 174 306 50 51 209 132 317 162 88 24 110 25 110 6 0 -8 -34 -90 -76
-183 -210 -466 -519 -1310 -693 -1893 -53 -179 -58 -210 -37 -265 20 -52 58
-86 119 -110 68 -26 97 -18 114 30 14 39 151 532 262 940 l57 210 80 8 c93 10
400 2 539 -14 279 -31 482 -128 558 -267 52 -96 54 -248 4 -372 -132 -326
-566 -588 -1104 -666 -174 -25 -522 -26 -620 0 -99 25 -107 20 -99 -51 9 -73
50 -148 101 -182 73 -51 128 -63 287 -68 207 -7 413 23 646 93 126 38 349 134
451 193 368 215 561 489 561 795 0 203 -73 350 -223 449 -80 53 -231 114 -341
136 -149 30 -149 42 0 94 313 109 492 269 549 492 19 74 20 271 1 340 -51 191
-212 328 -456 389 -162 41 -404 55 -610 35z m359 -89 c337 -44 491 -193 491
-475 0 -405 -371 -669 -1012 -723 -108 -9 -118 -7 -118 17 0 30 127 432 203
641 95 262 211 524 239 542 17 10 106 10 197 -2z"/>
</g>
</svg>
