<?xml version="1.0" encoding="utf-8"?>
<!-- Generator: Adobe Illustrator 25.4.1, SVG Export Plug-In . SVG Version: 6.00 Build 0)  -->
<svg version="1.1" id="Capa_1" xmlns="http://www.w3.org/2000/svg" xmlns:xlink="http://www.w3.org/1999/xlink" x="0px" y="0px"
	 viewBox="0 0 979.5 268" style="enable-background:new 0 0 979.5 268;" xml:space="preserve">
<style type="text/css">
	.st0{fill:#FA7C91;}
	.st1{fill:#82486F;}
	.st2{fill:#333333;}
	.st3{fill:#757763;}
</style>
<g>
	<path class="st0" d="M144.4,120.6c3.2-43.7,9-82,21.2-106.2c0.2-0.5,0.6-0.8,1.1-1c3.3-1.3,17.4-6.7,25.4-9.2
		c9.1-2.8,20.1-4.2,33.1-4.2c6.1,0,12.2,0.5,18.2,1.4c6.6,0.9,13,2.7,19,5.5c5.9,2.7,11,6.8,14.8,12c3.8,5.3,5.8,12.2,5.8,20.9
		c0,8.2-1.8,15.1-5.2,20.9c-3.5,5.7-8.2,10.6-13.8,14.2c-5.7,3.8-12,6.8-18.5,8.9l-6.7,2.2c-1.1,0.3-1.6,1.5-1.3,2.5
		c0.2,0.7,0.9,1.2,1.6,1.4c5.6,0.7,11.1,2.1,16.5,4c7.6,2.8,13.3,6.2,17.2,10.1c3.6,3.4,6.3,7.6,7.9,12.3c1.3,4,2,8.3,2,12.5
		c0.1,9.3-2.5,18.4-7.5,26.2c-5.2,8-11.9,15-19.8,20.5c-8.3,5.9-17.3,10.8-26.8,14.6c-9.3,3.8-18.9,6.7-28.8,8.8
		c-8.4,1.8-16.9,2.8-25.5,2.9c-9.2,0-16.1-1.5-20.8-4.6s-7-8.2-7-15.4c0-0.5,0.4-0.8,1.2-0.8c2.1,0.2,4.2,0.6,6.2,1.2
		c3,0.8,8.8,1.2,17.2,1.2c13.4,0.1,26.8-1.5,39.8-4.9c11.2-2.8,21.8-7.3,31.6-13.4c8.9-5.7,15.8-12,20.8-19.1s7.4-14.4,7.4-21.9
		c0-6.8-1.9-12.3-5.8-16.5c-4.2-4.4-9.4-7.6-15.1-9.5c-6.6-2.2-13.4-3.7-20.4-4.4c-7.2-0.7-14.5-1.1-21.8-1.1c-3.2,0-6.4,0-9.6,0.1
		c-2.7,0.1-5.2,0.1-7.6,0.1c-0.9,0-1.7,0.6-1.9,1.5c-3.7,13-7.3,26.1-10.8,39.3s-7.1,25.9-10.8,38.3c-0.3,0.9-1.1,1.5-2.1,1.4
		c-3.2-0.2-6.4-1.4-8.9-3.4c-2.7-2-4.3-5.2-4.2-8.5c0.1-2.4,0.5-4.7,1.2-7c0.8-2.7,1.6-5.1,2.2-7.2c1-3.3,2.8-8.9,5.2-16.8
		c2.5-7.8,5.5-17,9.1-27.5c3.6-10.5,7.6-21.5,11.9-33s8.8-22.8,13.4-33.8c4-9.5,7.8-18,11.6-25.7c0.5-1,0.1-2.2-0.9-2.7
		c-0.4-0.2-0.8-0.2-1.3-0.2c-4.7,0.9-9.3,2.3-13.6,4.3c-3.8,1.7-7.5,3.6-11,5.8l-0.2,0.2c-15,12.2-24.2,52.4-31.3,103.1
		c-0.1,1.1-1.1,1.9-2.2,1.8S144.3,121.7,144.4,120.6z M191.6,84.6c-0.3,1.1,0.3,2.2,1.3,2.5c0.2,0.1,0.4,0.1,0.7,0.1
		c8.2-0.4,16.5-1.4,24.6-3c8.6-1.6,17-4.4,24.9-8.4c7.1-3.5,13.3-8.7,18.1-15c4.6-6.2,6.9-13.8,6.9-23c0-8.7-2-15.3-6.1-20
		c-4.2-4.7-9.7-8.1-15.8-9.8c-6.6-1.9-13.5-2.8-20.4-2.8h-2.4c-0.4,0-0.8,0-1.3,0.1c-0.7,0.1-1.3,0.5-1.6,1.1
		c-6.1,12.2-11.4,24.7-15.9,37.6C200,57.2,195.7,70.7,191.6,84.6L191.6,84.6z"/>
	<path class="st0" d="M161.4,12.1c-1,0.8-2.2,1.3-3.5,1.4c-1.2,0.1-2.5-0.5-3.1-1.5c-1.1-1.4-1.2-3.2-0.3-5.5c0.7-2.1,2-3.9,3.7-5.2
		c0.8-0.7,1.8-1.1,2.9-1.1c1.1,0.1,2.1,0.7,2.7,1.7c1,1.3,1.2,3,0.7,5.2C164.1,9,163,10.8,161.4,12.1z"/>
	<path class="st1" d="M134.6,121.1c-7-50.7-16.3-90.8-31.3-103.1l-0.2-0.2c-3.5-2.2-7.2-4.1-11-5.8c-4.4-1.9-9-3.3-13.6-4.3
		c-1.1-0.2-2.1,0.5-2.3,1.6c-0.1,0.4,0,0.9,0.2,1.3c3.8,7.6,7.6,16.2,11.6,25.7c4.6,11,9.1,22.2,13.4,33.8
		c4.3,11.5,8.3,22.5,11.9,33c3.6,10.5,6.6,19.7,9.1,27.5c2.5,7.8,4.2,13.4,5.2,16.8c0.7,2.2,1.4,4.6,2.2,7.2c0.8,2.3,1.2,4.6,1.2,7
		c0,3.3-1.6,6.5-4.2,8.5c-2.5,2.1-5.6,3.3-8.9,3.4c-0.9,0.1-1.8-0.5-2.1-1.4c-3.7-12.4-7.3-25.1-10.8-38.3
		c-3.5-13.1-7.1-26.2-10.8-39.3c-0.2-0.9-1-1.4-1.9-1.5c-2.4,0-4.9,0-7.6-0.1c-3.2-0.1-6.5-0.1-9.6-0.1c-7.3,0-14.5,0.4-21.8,1.1
		c-6.9,0.7-13.8,2.1-20.4,4.4c-5.8,1.8-11,5.1-15.2,9.5c-3.8,4.2-5.8,9.7-5.8,16.5c0,7.5,2.5,14.8,7.4,21.9
		c4.9,7.1,11.8,13.5,20.8,19.1c9.8,6,20.4,10.5,31.6,13.4c13,3.4,26.3,5,39.8,4.9c8.5,0,14.2-0.4,17.2-1.2c2-0.7,4.1-1.1,6.2-1.2
		c0.8,0,1.2,0.2,1.2,0.8c0,7.2-2.3,12.3-7,15.4c-4.7,3.1-11.6,4.6-20.8,4.6c-8.6-0.1-17.1-1.1-25.5-2.9c-9.8-2-19.5-4.9-28.8-8.8
		c-9.5-3.8-18.4-8.7-26.8-14.6C19.7,170,12.9,163.1,7.8,155c-5-7.8-7.6-17-7.5-26.2c0-4.2,0.7-8.5,2-12.5c1.6-4.7,4.3-9,7.9-12.4
		c3.9-3.9,9.7-7.3,17.2-10.1c5.3-1.9,10.8-3.3,16.5-4c1.1-0.2,1.9-1.2,1.7-2.3c-0.1-0.8-0.6-1.4-1.4-1.6l-6.7-2.2
		C31,81.6,24.7,78.7,19,74.9c-5.6-3.7-10.3-8.5-13.8-14.2C1.8,54.9,0,47.9,0,39.8c0-8.7,1.9-15.6,5.8-20.9c3.8-5.2,8.9-9.4,14.8-12
		c6-2.8,12.4-4.6,19-5.5c6-0.9,12.1-1.3,18.2-1.3c13,0,24,1.4,33.1,4.2c8,2.5,22.1,7.9,25.4,9.2c0.5,0.2,0.8,0.5,1.1,1
		c12.3,24.2,18,62.5,21.2,106.2c0,1.1-0.9,2-2.1,1.9C135.6,122.6,134.9,122,134.6,121.1z M78.4,44.1c-4.5-12.9-9.8-25.4-15.9-37.6
		c-0.3-0.6-0.9-1-1.6-1.1c-0.4,0-0.9-0.1-1.3-0.1h-2.4c-6.9,0-13.7,0.9-20.4,2.8c-6.1,1.6-11.6,5-15.8,9.8c-4.1,4.7-6.1,11.3-6.1,20
		c0,9.2,2.3,16.8,6.9,23c4.8,6.3,11,11.5,18.1,15c7.9,4,16.2,6.8,24.9,8.4c8.1,1.6,16.3,2.6,24.6,3c1.1,0,2-0.8,2.1-1.9
		c0-0.2,0-0.5-0.1-0.7C87.4,70.7,83,57.2,78.4,44.1L78.4,44.1z"/>
	<path class="st1" d="M118.3,7c-0.5-2.2-0.2-3.9,0.7-5.2c0.6-1,1.6-1.6,2.7-1.7c1.1,0,2.1,0.4,2.9,1.1c1.7,1.4,3,3.2,3.7,5.2
		c0.8,2.3,0.7,4.1-0.3,5.5c-0.7,1.1-1.9,1.6-3.1,1.5c-1.3-0.1-2.5-0.6-3.5-1.4C119.8,10.9,118.7,9,118.3,7z"/>
	<path class="st2" d="M317.6,187.6c-5.6,0-10.2-2.6-13.8-7.8c-3.6-5.3-5.5-11.6-5.4-18c0.1-5.6,0.9-11.1,2.3-16.5
		c1.5-6.3,3.4-12.4,5.8-18.4c2-5.2,4.5-10.2,7.5-14.9c2.6-4,4.9-6,7.1-6c1.2,0,3,0.6,5.3,1.9c2.3,1.2,4.5,2.7,6.3,4.6
		c-2.5,3.9-4.7,8-6.6,12.2c-2.7,5.7-5,11.6-6.8,17.7c-1.9,5.5-2.9,11.3-3,17.2c0,0.7,0.1,2.2,0.4,4.7c0.2,2.4,0.9,4.8,1.9,7
		c0.9,2.1,3,3.4,5.2,3.2c2.8,0,5.8-1.5,9.1-4.6c3.7-3.6,7.1-7.6,10-12c3.4-4.9,6.7-10.2,10-15.8c3.3-5.6,6.2-11.1,8.7-16.4
		c2.6-5.3,4.7-9.8,6.3-13.4c2,0.3,3.9,0.7,5.8,1.2c2.2,0.6,4.4,1.5,6.3,2.6c1.7,0.9,2.8,2.7,2.7,4.6c0,0.5-0.8,2.5-2.4,6.1
		c-1.6,3.6-3.4,7.8-5.5,12.8c-2.1,5-3.9,10.1-5.5,15.3c-1.5,4.5-2.2,9.1-2.4,13.8c0,2.1,0.4,4.2,1.4,6.1c0.9,1.7,2.7,2.6,5.4,2.6
		c3.5,0,7.6-1.6,12.5-4.7c5.5-3.9,10.5-8.5,14.8-13.7c5.5-6.5,10.1-13.7,13.7-21.4l3.7,3c-3.5,8.7-8.3,16.8-14.2,24.1
		c-5.2,6.6-11.5,12.3-18.7,16.8c-6.7,4.1-13.1,6.1-19.4,6.1c-4.8,0-8.4-1.1-10.8-3.4c-2.5-2.3-4.2-5.4-4.9-8.7
		c-0.8-3.6-1.3-7.2-1.5-10.8v-5c-2.8,4.5-5.9,8.9-9.2,13.1c-3.1,4-6.6,7.5-10.6,10.6C326.1,186.1,321.9,187.6,317.6,187.6z"/>
	<path class="st2" d="M431.2,191.6c-7.3,0-13.2-2.2-17.7-6.5s-6.7-10.9-6.8-19.7c0-6.8,1.3-15.3,3.8-25.4c2.7-10.6,6-21.1,9.8-31.4
		c-1.4-0.4-2.7-0.7-4.1-0.9c-1.6-0.3-3.1-0.7-4.6-1.4v-7.7c2.7,0.3,4.9,0.6,6.6,0.8l5.4,0.5c3.5-8.8,7.3-17.3,11.3-25.5
		c3.7-7.5,7.8-14.9,12.2-22c3.3-5.5,7.2-10.6,11.6-15.3c3.7-3.7,6.9-5.6,9.7-5.6c1.7,0,3.4,0.7,4.7,1.9c1.5,1.3,2.4,3.3,2.2,5.4
		c0,3.3-1.7,8.1-5.1,14.2c-3.4,6.1-7.6,13.3-12.6,21.5c-5,8.2-9.8,17-14.4,26.3h7.7c7.3,0,13.9-0.1,19.8-0.4s11.9-0.7,18.1-1.4v8.2
		c-9.1,0.8-17.5,1.5-25.1,2c-7.6,0.5-14.9,0.8-21.9,1h-3c-3.5,8.2-6.5,16.5-9.1,25c-2.5,8.1-3.8,16.5-3.9,25
		c0,6.8,1.1,11.6,3.2,14.4c2.2,2.8,5.6,4.2,10.2,4.2c8.3,0,16.8-3.8,25.5-11.3s16.3-17.8,22.8-30.7l3.5,2.5
		c-4.2,9.6-9.6,18.5-16.1,26.7c-5.8,7.4-12.8,13.8-20.8,18.8C447.4,189.2,439.4,191.5,431.2,191.6z"/>
	<path class="st2" d="M502.9,191.6c-7.3,0-13.2-2.2-17.7-6.5c-4.5-4.3-6.7-10.9-6.7-19.7c0-6.8,1.3-15.3,3.9-25.4
		c2.7-10.6,6-21.1,9.8-31.4c-1.4-0.4-2.7-0.7-4.1-0.9c-1.6-0.3-3.1-0.7-4.6-1.4v-7.7c2.7,0.3,4.9,0.6,6.6,0.8l5.4,0.5
		c3.5-8.8,7.3-17.3,11.3-25.5c3.7-7.5,7.8-14.9,12.2-22c3.3-5.5,7.2-10.6,11.6-15.3c3.6-3.7,6.9-5.6,9.7-5.6c1.7,0,3.4,0.7,4.7,1.9
		c1.5,1.3,2.4,3.3,2.2,5.4c0,3.3-1.7,8.1-5.1,14.2c-3.4,6.1-7.6,13.3-12.6,21.5c-5,8.2-9.8,17-14.4,26.3h7.7
		c7.3,0,13.9-0.1,19.8-0.4c5.9-0.2,11.9-0.7,18-1.4v8.2c-9.1,0.8-17.5,1.5-25.1,2s-14.9,0.8-21.9,1h-3c-3.5,8.2-6.5,16.5-9.1,25
		c-2.5,8.1-3.8,16.5-3.9,25c0,6.8,1.1,11.6,3.2,14.4c2.2,2.8,5.6,4.2,10.2,4.2c8.3,0,16.8-3.8,25.5-11.3
		c8.7-7.6,16.3-17.8,22.8-30.8l3.5,2.5c-4.1,9.6-9.5,18.5-16,26.7c-5.8,7.4-12.8,13.8-20.8,18.8
		C519.1,189.2,511.1,191.5,502.9,191.6z"/>
	<path class="st2" d="M580.8,191.1c-10.6,0-18.8-2.9-24.5-8.6c-5.7-5.7-8.6-12.9-8.5-21.5c0-7.3,1.9-15.1,5.6-23.3
		c3.9-8.4,8.9-16.2,15.1-23.2c6-6.9,13-12.9,20.9-17.6c7.6-4.5,15.3-6.7,22.9-6.7c4.3,0,8.6,1.2,12.3,3.4c3.9,2.3,5.9,6.7,5.8,13.3
		c0,6.3-1.9,12.5-5.5,17.7c-3.9,5.8-8.9,10.7-14.7,14.7c-6.3,4.4-13.1,7.9-20.3,10.6c-7.2,2.7-14.7,4.5-22.3,5.4
		c-0.2,0.7-0.3,1.4-0.4,2.1c-0.1,0.8-0.1,2-0.1,3.6c0,1.5,0.2,2.9,0.4,4.4c0.3,2.3,1,4.5,2.1,6.6c1.3,2.5,3.3,4.6,5.7,6
		c2.7,1.7,6.3,2.5,11,2.5c7.4-0.1,14.6-2.1,21-5.9c7.4-4.2,14.1-9.4,19.9-15.6c6.2-6.4,11.4-13.7,15.6-21.7l5,4
		c-4.3,9.6-10.1,18.5-17.3,26.1c-6.7,7.2-14.6,13.1-23.4,17.4C598.9,188.9,590,191.1,580.8,191.1z M570.4,146
		c5-0.7,9.9-2.2,14.5-4.5c5.4-2.6,10.6-5.7,15.3-9.5c4.6-3.6,8.7-7.8,12.1-12.6c3-4,4.6-8.8,4.7-13.8c0-1.8-0.3-3.1-1-3.7
		c-0.9-0.8-2.1-1.1-3.2-1c-3.8,0-7.8,1.4-12,4.1c-4.5,3-8.6,6.6-12.2,10.7C580.6,124.6,574.4,134.8,570.4,146z"/>
	<path class="st2" d="M682.9,186.6c-6.2,0-11.1-1.6-14.9-4.9s-5.7-7.6-5.7-13.1c0.1-5.2,1.3-10.3,3.5-14.9
		c2.3-5.3,4.7-10.6,7.1-15.7c2.4-5.1,3.6-9.7,3.6-13.7c0.1-3.6-1.2-7-3.7-9.6c-2.5-2.6-5.5-4.7-8.7-6.4c-3.6,9.1-7.7,17.9-12.3,26.6
		c-4.6,8.5-8.3,15.2-11.1,20l-3.7-7.2c2.3-4.3,5.4-10.4,9.2-18.4c4.1-8.7,7.8-17.6,11-26.6c-1.7-1.8-2.6-4.2-2.5-6.7
		c0-4.4,1.4-8.7,4-12.2c2.7-3.8,5.2-5.7,7.7-5.7c2,0,3.5,1.1,4.4,3.4c0.7,1.5,1.2,3,1.4,4.6c-0.2,1.5-0.5,3-1.1,4.5
		c-0.7,2.2-1.3,3.7-1.6,4.7c0.2,1.8,1.6,3.6,4.4,5.4s5.8,3.8,9.3,6.1c3.5,2.4,6.6,5.3,9.2,8.7c2.7,3.5,4,7.9,4,13.2
		c-0.1,5.1-1.2,10.1-3.2,14.7c-2.2,5-4.3,9.6-6.5,13.9c-2.2,4.3-3.2,8-3.2,11.2c0,2.3,0.6,3.9,1.9,4.6c1.3,0.8,2.8,1.2,4.4,1.1
		c4.4-0.1,8.7-1.4,12.5-3.6c4.6-2.6,8.8-5.7,12.7-9.3c4-3.7,7.7-7.7,11-12.1c2.8-3.6,5.2-7.5,7.2-11.6l6,4.5
		c-3.5,7.6-8.1,14.7-13.7,21c-5.7,6.7-12.5,12.4-20,16.9C697.8,184.4,690.4,186.6,682.9,186.6z"/>
	<path class="st2" d="M727,249.9c-2.3-0.1-4.5-0.7-6.6-1.7c-2.6-1.2-4.8-3.4-6.7-6.8c-1.9-3.4-2.9-8.3-2.9-14.8
		c0-7.3,1.2-16.8,3.6-28.3c2.4-11.5,5.7-24.3,10-38.5c4.2-14.1,9.2-28.5,14.9-43.3c5.7-14.8,11.9-29,18.4-42.7
		c6-12.7,12.8-25.1,20.4-37c7.1-11,14.1-19.7,21-26.1c6.9-6.5,13.7-9.7,20.2-9.7c4.3,0,7.1,1.2,8.5,3.7c1.4,2.7,2.1,5.7,2,8.7
		c0,7.1-1.9,14.9-5.8,23.4c-4.2,9-9.5,17.6-15.6,25.5c-6.6,8.7-13.9,16.9-21.8,24.4c-7.6,7.4-15.9,14.1-24.7,20.1l-1.7,3.9
		c-0.5,1.1-1.1,2.5-1.8,4.4c1.5,0.9,2.8,2.1,3.9,3.5c1.1,1.5,1.7,3.2,1.9,5c1.5,8.6,4.3,14.7,8.5,18.2c4,3.4,9.2,5.3,14.5,5.2
		c4.3-0.1,8.5-0.8,12.6-2.2c4.3-1.5,8.5-3.3,12.6-5.5c2.2-9.8,5.1-19.4,8.6-28.8c3.7-10.2,8-20.5,12.9-30.9s10-20.3,15.3-29.6
		c5.3-9.4,10.5-17.8,15.6-25.1c4.1-6.2,8.8-12,13.9-17.4c4.2-4.2,7.7-6.4,10.3-6.4c2.2,0,4,1.1,5.6,3.4c1.7,2.5,2.9,5.2,3.7,8.1
		c0.8,2.7,1.3,5.6,1.4,8.5c0,4.5-1.1,10.3-3.4,17.4c-2.6,8.1-5.7,16-9.3,23.7c-4.2,9.1-9,17.9-14.3,26.4
		c-5.6,8.9-11.8,17.5-18.6,25.5c-6.5,7.8-13.8,14.9-21.7,21.3c-0.8,4.3-1.5,8.7-2.1,13.1c-0.6,3.9-0.8,7.9-0.9,11.8
		c0,5.8,1,10.1,2.9,13c1.6,2.7,4.5,4.3,7.6,4.2c4.5,0,9-2,13.6-6c5-4.4,9.3-9.5,13-15.1c4-5.9,7.5-12.2,10.3-18.8l6.2,3.5
		c-7.1,14.8-14.9,26.4-23.3,35c-8.4,8.6-17.5,12.8-27.3,12.8c-8.6,0-14.6-2.9-17.9-8.7c-3.3-5.8-5-13-5-21.4c0-2.9,0.3-5.8,0.7-8.7
		c-8.3,4.2-17.4,6.4-26.6,6.5c-2.8,0-5.6-0.4-8.3-1c-2.9-0.7-5.8-1.6-8.6-2.7c0,1.5,0.1,3,0.2,4.5c0.2,1.4,0.2,2.8,0.2,4.2
		c0,10.5-1.1,21.1-3.2,31.4c-2,9.8-4.9,19.4-8.8,28.6c-3.7,8.6-8,15.6-12.8,20.8C737.4,247.3,732.3,249.9,727,249.9z M733.8,234.4
		c2.5,0,5.1-2.4,7.7-7.1c3.1-5.8,5.6-11.9,7.5-18.2c2.4-7.8,4.3-15.7,5.7-23.6c1.4-7.8,2.2-15.8,2.2-23.8c-0.1-4.1-0.4-8.3-1.2-12.3
		c-0.7-4.4-2.4-8.5-5.1-12.1c-4,12-7.6,23.5-10.7,34.6c-3.1,11.1-5.6,21.2-7.3,30.1c-1.7,9-2.6,16.2-2.6,21.7
		C730,230.8,731.2,234.4,733.8,234.4z M769.1,89c9.1-8.4,17.6-17.5,25.4-27.1c6.1-7.5,11.7-15.5,16.6-23.9c3.9-7,5.8-12,5.8-15.2
		c0-1.1-0.7-1.7-2-1.7c-4,0-8.6,3-13.7,9.1s-10.4,14.2-15.9,24.5C779.8,65,774.4,76.4,769.1,89z M836.6,120.9
		c3.5-3.8,7.4-8.5,11.7-14.1s8.7-11.6,13.1-18.2c4.4-6.6,8.5-13.3,12.3-20.3c3.7-6.7,7-13.6,9.8-20.7c2.6-6.1,4.3-12.6,5.1-19.2
		c0.2-0.9,0.2-1.8,0.2-2.7c0-0.8-0.2-1.3-0.5-1.5c-1.2-0.3-3.2,1.3-6.2,5c-3.8,4.9-7.3,10-10.4,15.3c-4,6.6-8.2,14-12.4,22.4
		s-8.5,17.2-12.5,26.4C842.9,102.3,839.4,111.5,836.6,120.9L836.6,120.9z"/>
	<path class="st2" d="M882.1,249.9c-4.2,0-8.2-1.4-11.6-3.9c-3.6-2.6-5.3-6.7-5.3-12.3c0-5.2,1.6-10.2,4.7-14.3
		c3.4-4.5,7.6-8.5,12.2-11.7c5.1-3.6,10.5-6.9,16.1-9.7c5.7-2.9,11.3-5.6,16.6-8.1c1.8-4.8,3.9-10.9,6.1-18.3s4.2-14.2,5.8-20.5
		c-4.9,6.8-10.4,13.2-16.4,18.9c-5.8,5.5-12.3,8.2-19.4,8.2c-3.2,0-6.4-0.7-9.5-1.9c-3.4-1.3-6.3-3.5-8.3-6.5
		c-2.2-3.1-3.4-7.2-3.4-12.3c0.1-5.3,0.9-10.6,2.4-15.7c1.6-6.1,3.6-12.2,6-18.1c2-5.1,4.6-10.1,7.6-14.7c2.7-3.9,5-5.9,7-5.9
		c1.5,0.1,3,0.5,4.4,1.1c2,0.8,3.8,1.8,5.6,3c1.6,0.9,2.8,2.4,3.5,4.1c-1.9,2.7-3.6,5.6-5,8.6c-2,4.1-3.7,8.2-5.2,12.5
		c-1.6,4.4-3,8.8-4.1,13.3c-1,3.7-1.5,7.4-1.6,11.2c-0.1,2.2,0.5,4.5,1.5,6.5c1,1.8,2.9,2.7,5.7,2.7c3.7,0,7.4-1.5,11.3-4.5
		c4.3-3.3,8.1-7.2,11.4-11.5c3.7-4.5,7-9.3,10.1-14.2c0.5-1.8,0.8-3.6,1-5.5c0.4-2.6,1-5.2,1.8-7.7c0.9-2.9,2.3-5.5,4.4-7.7
		c2.1-2.3,5-3.5,8.8-3.5c1.3,0,2.5,0.1,3.7,0.2c1.2,0.2,2.6,0.4,4.2,0.7c0,2.5-0.9,7.4-2.6,14.6c-1.7,7.2-4,15.6-6.8,25
		c-2.8,9.5-6,18.9-9.5,28.4c7-2.8,14.2-7.5,21.8-14.1s13.7-15.9,18.3-28l4.2,3.5c-2.3,7.9-6.1,15.3-11.3,21.7
		c-4.9,6-10.7,11.3-17.1,15.7c-6,4.2-12.5,7.7-19.2,10.7c-4.2,10.3-9.1,20.2-14.6,29.9c-5.2,9.1-10.8,16.4-16.6,21.8
		C895,247.2,888.8,249.9,882.1,249.9z M879.6,240.6c3.2,0,7.6-3.3,13.2-10c5.6-6.7,11.4-16.6,17.2-29.9c-5.5,2.8-10.9,5.9-16.1,9.3
		c-5,3.2-9.5,7-13.6,11.3c-3.6,4-5.5,8.1-5.5,12.2c0,1.6,0.4,3.3,1.1,4.7C876.6,239.8,878.1,240.7,879.6,240.6z"/>
	<path class="st3" d="M2.3,267.5c-1.1,0.1-2.1-0.6-2.2-1.7c0-0.2,0-0.4,0-0.5v-30.8c-0.1-1.1,0.6-2.1,1.7-2.2c0.2,0,0.4,0,0.5,0h9.6
		c5.7,0,10.1,1.5,13.2,4.5c3.1,3,4.7,7.4,4.7,13.1c0,2.6-0.4,5.1-1.2,7.6c-0.7,2.1-1.9,4-3.5,5.5c-1.6,1.5-3.5,2.7-5.6,3.4
		c-2.5,0.8-5,1.2-7.6,1.2L2.3,267.5z M4.1,264h7.5c2.1,0,4.1-0.3,6.1-0.9c3.3-1.1,5.9-3.7,6.9-7.1c0.6-2,0.9-4.1,0.9-6.2
		c0-4.7-1.1-8.2-3.4-10.6c-2.3-2.3-5.8-3.5-10.4-3.5H4.1L4.1,264z"/>
	<path class="st3" d="M39.4,267.5c-1.1,0.1-2.1-0.6-2.2-1.7c0-0.2,0-0.4,0-0.5v-30.8c-0.1-1.1,0.6-2.1,1.7-2.2c0.2,0,0.4,0,0.5,0H58
		c0.5,0,0.9,0.1,1.3,0.5c0.3,0.3,0.5,0.8,0.5,1.3c0.1,0.9-0.5,1.6-1.4,1.8c-0.1,0-0.3,0-0.4,0H41.1v12.2h15.8c0.5,0,0.9,0.1,1.3,0.4
		c0.3,0.3,0.5,0.8,0.5,1.3c0.1,0.9-0.5,1.6-1.4,1.8c-0.1,0-0.3,0-0.4,0H41.1v12.7H58c0.5,0,0.9,0.1,1.3,0.5c0.3,0.3,0.5,0.8,0.5,1.2
		c0.1,0.9-0.5,1.6-1.4,1.8c-0.1,0-0.3,0-0.4,0L39.4,267.5z"/>
	<path class="st3" d="M68.3,267.8c-0.6,0-1.1-0.2-1.5-0.6c-0.4-0.4-0.6-1-0.5-1.6v-31.3c0-0.6,0.2-1.1,0.5-1.6
		c0.4-0.4,1-0.6,1.5-0.5h11.9c3.8,0,6.7,0.9,8.7,2.7c2.1,1.9,3.2,4.7,3,7.5c0,1.9-0.4,3.7-1.4,5.4c-0.9,1.5-2.3,2.7-4,3.5
		c-2,0.8-4.2,1.2-6.4,1.2l0.5-0.7h1c1.2,0,2.4,0.3,3.4,1c1.1,0.9,2,1.9,2.6,3.2l4.8,9c0.2,0.4,0.4,0.9,0.4,1.4
		c0,0.4-0.2,0.8-0.5,1.1c-0.4,0.3-0.8,0.5-1.3,0.4c-0.5,0-1-0.1-1.4-0.4c-0.4-0.3-0.7-0.7-1-1.2l-5.5-10.1c-0.6-1.2-1.5-2.2-2.6-2.9
		c-1.3-0.5-2.6-0.8-4-0.7h-6.4v13.1c0,0.6-0.1,1.1-0.5,1.6C69.4,267.7,68.9,267.9,68.3,267.8z M70.4,249.3h9.2
		c2.7,0,4.8-0.6,6.2-1.7c1.5-1.3,2.2-3.2,2.1-5.2c0.1-1.9-0.6-3.8-2.1-5.1c-1.4-1.2-3.5-1.7-6.2-1.7h-9.2V249.3z"/>
	<path class="st3" d="M101.8,267.8c-0.6,0-1.1-0.2-1.5-0.6c-0.4-0.4-0.6-1-0.5-1.6v-31.3c0-0.6,0.2-1.1,0.5-1.6
		c0.4-0.4,1-0.6,1.5-0.5h11.9c3.8,0,6.7,0.9,8.7,2.7c2.1,1.9,3.2,4.7,3,7.5c0,1.9-0.4,3.7-1.4,5.4c-0.9,1.5-2.3,2.7-4,3.5
		c-2,0.8-4.2,1.2-6.4,1.2l0.5-0.7h1c1.2,0,2.4,0.3,3.4,1c1.1,0.8,2,1.9,2.6,3.2l4.8,9c0.2,0.4,0.4,0.9,0.4,1.4
		c0,0.4-0.2,0.8-0.5,1.1c-0.4,0.3-0.8,0.5-1.3,0.4c-0.5,0-1-0.1-1.4-0.4c-0.4-0.3-0.8-0.7-1-1.2l-5.5-10.1c-0.6-1.2-1.5-2.2-2.6-2.9
		c-1.2-0.5-2.6-0.8-4-0.7h-6.4v13.1c0,0.6-0.1,1.1-0.5,1.6C102.9,267.7,102.3,267.9,101.8,267.8z M103.8,249.3h9.2
		c2.7,0,4.8-0.6,6.2-1.7c1.5-1.3,2.2-3.2,2.1-5.2c0.1-1.9-0.6-3.8-2.1-5.1c-1.4-1.2-3.5-1.7-6.2-1.7h-9.2V249.3z"/>
	<path class="st3" d="M135.4,267.5c-0.6,0-1.2-0.2-1.7-0.6c-0.4-0.5-0.6-1.1-0.6-1.7v-30.8c0-0.6,0.2-1.2,0.6-1.7
		c0.5-0.4,1.1-0.6,1.7-0.6H154c0.5,0,0.9,0.1,1.3,0.5c0.3,0.4,0.5,0.8,0.4,1.3c0.1,0.9-0.5,1.6-1.4,1.8c-0.1,0-0.3,0-0.4,0h-16.8
		v12.2H153c0.5,0,0.9,0.1,1.3,0.4c0.3,0.3,0.5,0.8,0.5,1.3c0.1,0.9-0.5,1.6-1.4,1.8c-0.1,0-0.3,0-0.4,0h-15.8v12.7H154
		c0.5,0,0.9,0.1,1.3,0.5c0.3,0.3,0.5,0.8,0.5,1.2c0.1,0.9-0.5,1.6-1.4,1.8c-0.1,0-0.3,0-0.4,0L135.4,267.5z"/>
	<path class="st3" d="M172.4,267.8c-0.6,0-1.1-0.2-1.5-0.6c-0.4-0.4-0.6-1-0.5-1.6v-29.9h-11.3c-0.5,0-1-0.2-1.4-0.5
		c-0.3-0.3-0.5-0.8-0.5-1.3c0-0.5,0.1-1,0.5-1.3c0.4-0.3,0.9-0.5,1.4-0.5h26.7c0.5,0,1,0.1,1.4,0.5c0.3,0.3,0.5,0.8,0.5,1.3
		c0,0.5-0.2,1-0.5,1.3c-0.4,0.3-0.9,0.5-1.4,0.5h-11.3v29.9c0,0.6-0.2,1.1-0.5,1.6C173.5,267.7,173,267.9,172.4,267.8z"/>
	<path class="st3" d="M193.8,267.8c-0.6,0-1.1-0.2-1.5-0.6c-0.4-0.4-0.6-1-0.5-1.6V234c0-0.6,0.1-1.2,0.5-1.6c0.9-0.7,2.2-0.7,3,0
		c0.4,0.4,0.6,1,0.5,1.6v31.7c0,0.6-0.1,1.1-0.5,1.6C195,267.7,194.4,267.9,193.8,267.8z"/>
	<path class="st3" d="M206.6,267.8c-0.5,0-1-0.2-1.4-0.5c-0.4-0.4-0.5-0.9-0.5-1.5v-32c0-0.5,0.1-1.1,0.5-1.5
		c0.4-0.3,0.9-0.5,1.4-0.5c0.4,0,0.9,0.1,1.3,0.3c0.4,0.3,0.7,0.7,0.9,1.1l13.7,25.8H221l13.6-25.8c0.2-0.4,0.5-0.8,0.9-1.1
		c0.4-0.2,0.8-0.3,1.3-0.3c0.5,0,1,0.2,1.4,0.5c0.4,0.4,0.5,1,0.5,1.5v32c0,0.5-0.1,1.1-0.5,1.5c-0.8,0.7-2,0.7-2.8,0
		c-0.4-0.4-0.5-0.9-0.5-1.5v-28.1h1.2l-12.5,23.5c-0.2,0.4-0.4,0.7-0.7,0.9c-0.3,0.2-0.7,0.3-1.1,0.3c-0.4,0-0.8-0.1-1.1-0.3
		c-0.3-0.2-0.5-0.5-0.7-0.9l-12.6-23.5h1.2v28.2c0,0.5-0.1,1.1-0.5,1.5C207.6,267.7,207.1,267.9,206.6,267.8z"/>
	<path class="st3" d="M262.2,268c-3,0.1-6-0.7-8.5-2.2c-2.4-1.5-4.4-3.7-5.6-6.3c-1.4-3-2.1-6.3-2-9.6c0-2.6,0.3-5.1,1.1-7.5
		c0.7-2.1,1.8-4,3.2-5.7c1.4-1.6,3.1-2.8,5.1-3.6c2.1-0.9,4.4-1.3,6.7-1.3c3-0.1,6,0.7,8.6,2.2c2.4,1.5,4.4,3.6,5.6,6.2
		c1.4,3,2.1,6.3,2,9.6c0,2.6-0.4,5.1-1.1,7.5c-0.7,2.1-1.8,4-3.2,5.7c-1.4,1.6-3.1,2.8-5.1,3.6C266.8,267.6,264.5,268,262.2,268z
		 M262.2,264.3c2.3,0.1,4.5-0.5,6.4-1.7c1.8-1.2,3.2-3,4-5c1-2.5,1.5-5.1,1.4-7.8c0-4.6-1-8.1-3.1-10.6c-2.1-2.5-5-3.8-8.8-3.8
		c-2.2-0.1-4.4,0.5-6.3,1.7c-1.8,1.2-3.2,2.9-4,4.9c-1,2.5-1.5,5.1-1.4,7.8c0,4.5,1,8.1,3.1,10.6C255.6,263,258.8,264.5,262.2,264.3
		L262.2,264.3z"/>
	<path class="st3" d="M297.1,268c-1.5,0-3.1-0.1-4.6-0.4c-1.4-0.2-2.8-0.6-4.2-1.2c-1.2-0.5-2.4-1.1-3.5-1.9c-0.4-0.2-0.7-0.6-0.8-1
		c-0.1-0.4-0.2-0.8-0.1-1.1c0.1-0.4,0.2-0.7,0.5-1c0.2-0.3,0.6-0.4,0.9-0.5c0.4,0,0.8,0.1,1.2,0.3c1.5,1,3.1,1.8,4.8,2.3
		c1.9,0.5,3.8,0.7,5.8,0.7c3,0,5.2-0.6,6.7-1.7c1.4-1,2.2-2.7,2.2-4.4c0.1-1.4-0.5-2.7-1.6-3.5c-1.6-1.1-3.4-1.7-5.3-2l-5.2-1
		c-2.6-0.4-5-1.5-7-3.3c-1.6-1.6-2.4-3.8-2.3-6.1c0-1.5,0.3-2.9,1-4.3c0.6-1.3,1.5-2.4,2.7-3.3c1.2-0.9,2.5-1.7,4-2.1
		c1.7-0.5,3.4-0.8,5.2-0.8c2,0,4,0.3,5.9,0.9c1.8,0.6,3.5,1.5,4.9,2.6c0.3,0.3,0.6,0.6,0.8,1c0.1,0.3,0.2,0.7,0.1,1.1
		c-0.1,0.3-0.3,0.6-0.5,0.9c-0.3,0.2-0.6,0.4-1,0.4c-0.5,0-0.9-0.1-1.3-0.4c-1.3-1-2.7-1.7-4.2-2.2c-1.5-0.5-3.1-0.7-4.8-0.7
		c-1.6,0-3.1,0.2-4.6,0.8c-1.2,0.5-2.2,1.3-3,2.3c-0.7,1-1,2.2-1,3.4c-0.1,1.4,0.5,2.8,1.5,3.8c1.4,1.1,3.1,1.8,4.8,2l5.2,1.1
		c3.4,0.7,5.9,1.8,7.5,3.2c1.6,1.5,2.5,3.6,2.4,5.8c0,1.4-0.3,2.8-0.9,4c-0.6,1.2-1.5,2.3-2.6,3.2c-1.2,0.9-2.6,1.6-4.1,2
		C300.8,267.7,299,268,297.1,268z"/>
	<path class="st3" d="M340.1,267.8c-0.6,0-1.1-0.2-1.5-0.6c-0.4-0.4-0.6-1-0.5-1.6v-29.9h-11.3c-0.5,0-1-0.2-1.4-0.5
		c-0.3-0.3-0.5-0.8-0.5-1.3c0-0.5,0.2-1,0.5-1.3c0.4-0.3,0.9-0.5,1.4-0.5h26.7c0.5,0,1,0.1,1.4,0.5c0.4,0.3,0.5,0.8,0.5,1.3
		c0,0.5-0.2,1-0.5,1.3c-0.4,0.3-0.9,0.5-1.4,0.5h-11.2v29.9c0,0.6-0.2,1.1-0.5,1.6C341.2,267.7,340.7,267.9,340.1,267.8z"/>
	<path class="st3" d="M373.4,268c-2.1,0-4.1-0.3-6.1-0.9c-3.4-1.1-6.1-3.8-7.1-7.3c-0.6-2-0.9-4.1-0.9-6.2V234
		c0-0.6,0.2-1.1,0.5-1.6c0.9-0.7,2.1-0.7,3,0c0.4,0.4,0.6,1,0.5,1.6v19.3c0,3.7,0.9,6.4,2.5,8.2c1.7,1.8,4.2,2.7,7.5,2.7
		c3.3,0,5.8-0.9,7.5-2.7s2.5-4.6,2.5-8.2V234c0-0.6,0.2-1.2,0.5-1.6c0.4-0.4,1-0.6,1.5-0.5c0.5,0,1.1,0.2,1.5,0.5
		c0.4,0.4,0.6,1,0.5,1.6v19.5c0.1,2.7-0.5,5.4-1.6,7.9c-1,2.1-2.7,3.8-4.7,4.9C378.7,267.5,376,268.1,373.4,268z"/>
	<path class="st3" d="M407.3,268c-1.5,0-3.1-0.1-4.6-0.4c-1.4-0.2-2.8-0.6-4.2-1.2c-1.2-0.5-2.4-1.1-3.5-1.9c-0.4-0.2-0.6-0.6-0.8-1
		c-0.1-0.4-0.2-0.8-0.1-1.1c0.1-0.4,0.2-0.7,0.5-1c0.2-0.3,0.6-0.4,0.9-0.5c0.4,0,0.8,0.1,1.2,0.3c1.5,1,3.1,1.8,4.8,2.3
		c1.9,0.5,3.8,0.7,5.8,0.7c3,0,5.2-0.6,6.7-1.7c1.4-1,2.2-2.7,2.2-4.4c0.1-1.4-0.5-2.7-1.6-3.5c-1.6-1.1-3.4-1.7-5.3-2l-5.2-1
		c-2.6-0.4-5-1.5-7-3.3c-1.6-1.6-2.4-3.8-2.3-6.1c0-1.5,0.3-3,1-4.3c0.6-1.3,1.5-2.4,2.6-3.3c1.2-0.9,2.5-1.7,4-2.1
		c1.7-0.5,3.4-0.8,5.2-0.8c2,0,4,0.3,5.9,0.9c1.8,0.6,3.5,1.5,4.9,2.6c0.3,0.3,0.6,0.6,0.8,1c0.1,0.3,0.2,0.7,0.1,1.1
		c-0.1,0.3-0.3,0.6-0.5,0.9c-0.3,0.2-0.6,0.4-1,0.4c-0.5,0-0.9-0.1-1.3-0.4c-1.3-1-2.7-1.7-4.2-2.2c-1.5-0.5-3.1-0.7-4.8-0.7
		c-1.6,0-3.1,0.2-4.6,0.8c-1.2,0.5-2.2,1.3-3,2.3c-0.7,1-1.1,2.3-1.1,3.5c-0.1,1.4,0.5,2.8,1.5,3.8c1.4,1.1,3.1,1.8,4.8,2l5.2,1.1
		c3.4,0.7,5.9,1.8,7.5,3.2c1.6,1.5,2.5,3.6,2.4,5.8c0,1.4-0.3,2.8-0.9,4c-0.6,1.2-1.5,2.3-2.6,3.2c-1.2,0.9-2.6,1.6-4.1,2
		C410.9,267.8,409.1,268,407.3,268z"/>
	<path class="st3" d="M450.9,268c-1.5,0-3.1-0.1-4.6-0.4c-1.4-0.2-2.8-0.6-4.2-1.2c-1.2-0.5-2.4-1.1-3.5-1.9c-0.4-0.2-0.6-0.6-0.8-1
		c-0.2-0.4-0.2-0.8-0.1-1.1c0.1-0.4,0.2-0.7,0.5-1c0.2-0.3,0.6-0.4,0.9-0.5c0.4,0,0.8,0.1,1.2,0.3c1.5,1,3.1,1.8,4.8,2.3
		c1.9,0.5,3.8,0.7,5.8,0.7c3,0,5.2-0.6,6.7-1.7c1.4-1,2.2-2.7,2.1-4.5c0.1-1.4-0.5-2.7-1.6-3.5c-1.6-1.1-3.4-1.7-5.3-2l-5.2-1
		c-2.6-0.4-5-1.5-7-3.3c-1.6-1.6-2.4-3.8-2.3-6.1c0-1.5,0.3-2.9,1-4.3c0.6-1.3,1.5-2.4,2.7-3.3c1.2-0.9,2.5-1.7,4-2.1
		c1.7-0.5,3.4-0.8,5.2-0.8c2,0,4,0.3,5.9,0.9c1.8,0.6,3.5,1.5,4.9,2.6c0.3,0.3,0.6,0.6,0.8,1c0.1,0.3,0.2,0.7,0,1.1
		c-0.1,0.3-0.3,0.6-0.5,0.9c-0.3,0.2-0.6,0.4-1,0.4c-0.5,0-0.9-0.1-1.3-0.4c-1.2-1-2.7-1.7-4.2-2.2c-1.5-0.5-3.1-0.7-4.8-0.7
		c-1.6,0-3.1,0.2-4.6,0.8c-1.2,0.5-2.2,1.3-3,2.3c-0.7,1-1.1,2.3-1.1,3.5c-0.1,1.4,0.5,2.8,1.5,3.8c1.4,1.1,3.1,1.8,4.8,2l5.2,1.1
		c3.4,0.7,5.9,1.8,7.5,3.2c1.6,1.5,2.5,3.6,2.4,5.8c0,1.4-0.3,2.8-0.9,4c-0.6,1.2-1.5,2.3-2.6,3.2c-1.2,0.9-2.6,1.6-4.1,2
		C454.6,267.7,452.7,268,450.9,268z"/>
	<path class="st3" d="M472.5,267.5c-1.1,0.1-2.1-0.6-2.2-1.7c0-0.2,0-0.4,0-0.5v-30.8c-0.1-1.1,0.6-2.1,1.7-2.2c0.2,0,0.4,0,0.5,0
		h18.6c0.5,0,0.9,0.1,1.3,0.5c0.3,0.3,0.5,0.8,0.5,1.2c0.1,0.9-0.5,1.6-1.4,1.8c-0.1,0-0.3,0-0.4,0h-16.8v12.2h15.8
		c0.5,0,0.9,0.1,1.3,0.4c0.3,0.3,0.5,0.8,0.5,1.3c0.1,0.9-0.5,1.6-1.4,1.8c-0.1,0-0.3,0-0.4,0h-15.8V264h16.8c0.5,0,0.9,0.1,1.3,0.5
		c0.3,0.3,0.5,0.8,0.5,1.2c0.1,0.9-0.5,1.6-1.4,1.8c-0.1,0-0.3,0-0.4,0L472.5,267.5z"/>
	<path class="st3" d="M501.4,267.8c-0.5,0-1.1-0.2-1.5-0.5c-0.4-0.4-0.5-1-0.5-1.5V234c0-0.6,0.1-1.1,0.5-1.5
		c0.3-0.4,0.8-0.6,1.3-0.5c0.4,0,0.8,0.1,1.2,0.3c0.3,0.3,0.6,0.6,0.9,1l21.8,29h-1.2v-28.3c0-0.5,0.1-1.1,0.5-1.5
		c0.4-0.4,0.9-0.5,1.5-0.5c0.5,0,1,0.2,1.4,0.5c0.3,0.4,0.5,0.9,0.5,1.5v32c0,0.5-0.1,1-0.4,1.5c-0.3,0.4-0.8,0.5-1.2,0.5
		c-0.4,0-0.8-0.1-1.2-0.3c-0.4-0.3-0.7-0.6-1-1l-21.8-29h1.2v28.2c0,0.6-0.1,1.1-0.5,1.5C502.4,267.7,501.9,267.9,501.4,267.8z"/>
	<path class="st3" d="M547.1,267.8c-0.6,0-1.1-0.2-1.5-0.6c-0.4-0.4-0.6-1-0.5-1.6v-29.9h-11.2c-0.5,0-1-0.2-1.4-0.5
		c-0.3-0.3-0.5-0.8-0.5-1.3c0-0.5,0.2-1,0.5-1.3c0.4-0.3,0.9-0.5,1.4-0.5h26.7c0.5,0,1,0.1,1.4,0.5c0.4,0.3,0.5,0.8,0.5,1.3
		c0,0.5-0.2,1-0.5,1.3c-0.4,0.3-0.9,0.5-1.4,0.5h-11.3v29.9c0,0.6-0.2,1.1-0.5,1.6C548.3,267.7,547.7,267.9,547.1,267.8z"/>
	<path class="st3" d="M568.6,267.8c-0.6,0-1.1-0.2-1.5-0.6c-0.4-0.4-0.6-1-0.5-1.6V234c0-0.6,0.2-1.2,0.5-1.6c0.4-0.4,1-0.6,1.5-0.5
		c0.6,0,1.1,0.2,1.5,0.5c0.4,0.4,0.6,1,0.5,1.6v31.7c0,0.6-0.1,1.1-0.5,1.6C569.7,267.7,569.1,267.9,568.6,267.8z"/>
	<path class="st3" d="M581.6,267.5c-1.1,0.1-2.1-0.6-2.2-1.7c0-0.2,0-0.4,0-0.5v-30.8c-0.1-1.1,0.6-2.1,1.7-2.2c0.2,0,0.4,0,0.5,0
		h9.7c5.7,0,10.1,1.5,13.2,4.5c3.1,3,4.7,7.4,4.7,13.1c0,2.6-0.3,5.1-1.2,7.6c-0.7,2.1-1.9,4-3.5,5.5c-1.6,1.5-3.5,2.7-5.6,3.4
		c-2.5,0.8-5,1.2-7.6,1.2L581.6,267.5z M583.5,264h7.5c2.1,0,4.1-0.3,6.1-0.9c1.6-0.5,3.1-1.4,4.3-2.7c1.2-1.2,2.1-2.8,2.6-4.4
		c0.6-2,0.9-4.1,0.8-6.2c0-4.7-1.2-8.2-3.5-10.6s-5.7-3.5-10.3-3.5h-7.5V264z"/>
	<path class="st3" d="M631.3,268c-3,0.1-5.9-0.7-8.5-2.2c-2.4-1.5-4.4-3.7-5.6-6.3c-1.4-3-2.1-6.3-2-9.6c0-2.6,0.3-5.1,1.1-7.5
		c0.7-2.1,1.8-4,3.2-5.7c1.4-1.6,3.1-2.8,5.1-3.6c2.1-0.9,4.4-1.3,6.7-1.3c3-0.1,6,0.7,8.6,2.2c2.4,1.5,4.4,3.6,5.6,6.2
		c1.4,3,2.1,6.3,2,9.6c0,2.6-0.3,5.1-1.2,7.5c-0.7,2.1-1.8,4-3.2,5.7c-1.4,1.6-3.1,2.8-5.1,3.6C635.9,267.6,633.6,268,631.3,268z
		 M631.3,264.3c2.3,0.1,4.5-0.5,6.4-1.7c1.8-1.2,3.2-3,4-5c1-2.5,1.5-5.1,1.4-7.8c0-4.6-1-8.1-3.1-10.6s-5-3.8-8.8-3.8
		c-2.2-0.1-4.4,0.5-6.3,1.7c-1.8,1.2-3.2,2.9-4,4.9c-1,2.5-1.5,5.1-1.4,7.8c0,4.5,1,8.1,3.1,10.6C624.7,263,627.9,264.5,631.3,264.3
		L631.3,264.3z"/>
	<path class="st3" d="M666.2,268c-1.5,0-3.1-0.1-4.6-0.4c-1.4-0.2-2.8-0.6-4.2-1.2c-1.2-0.5-2.4-1.1-3.5-1.9c-0.4-0.2-0.6-0.6-0.8-1
		c-0.2-0.4-0.2-0.8-0.1-1.1c0.1-0.4,0.2-0.7,0.5-1c0.2-0.3,0.6-0.4,0.9-0.5c0.4,0,0.8,0.1,1.2,0.3c1.5,1,3.1,1.8,4.8,2.3
		c1.9,0.5,3.8,0.7,5.8,0.7c3,0,5.2-0.6,6.7-1.7c1.4-1,2.2-2.7,2.2-4.4c0.1-1.4-0.5-2.7-1.6-3.5c-1.6-1.1-3.4-1.7-5.3-2l-5.2-1
		c-2.6-0.4-5-1.5-7-3.3c-1.6-1.6-2.4-3.8-2.3-6.1c0-1.5,0.3-2.9,1-4.3c0.6-1.3,1.5-2.4,2.7-3.3c1.2-1,2.6-1.7,4-2.1
		c1.7-0.5,3.4-0.8,5.2-0.8c2,0,4,0.3,5.9,0.9c1.8,0.6,3.5,1.5,4.9,2.6c0.3,0.3,0.6,0.6,0.8,1c0.1,0.4,0.1,0.7,0,1.1
		c-0.1,0.3-0.3,0.6-0.5,0.9c-0.3,0.2-0.6,0.4-1,0.4c-0.5,0-0.9-0.1-1.3-0.4c-1.2-1-2.7-1.7-4.2-2.2c-1.5-0.5-3.1-0.7-4.8-0.7
		c-1.6,0-3.1,0.2-4.6,0.8c-1.2,0.5-2.2,1.3-3,2.3c-0.7,1-1.1,2.3-1.1,3.5c-0.1,1.4,0.5,2.8,1.5,3.8c1.4,1.1,3.1,1.8,4.8,2l5.2,1.1
		c3.4,0.7,5.9,1.8,7.5,3.2c1.6,1.5,2.5,3.6,2.4,5.8c0,1.4-0.3,2.8-0.9,4c-0.6,1.2-1.5,2.3-2.6,3.2c-1.2,0.9-2.6,1.6-4.1,2
		C669.8,267.8,668,268,666.2,268z"/>
</g>
</svg>
